<svg width="170" height="41" viewBox="0 0 170 41" fill="none" xmlns="http://www.w3.org/2000/svg">
<rect x="1" y="0.632812" width="168" height="39" rx="3.5" stroke="#F1F5F9"/>
<path d="M33.5 18.9373C33.5 18.5916 33.5 18.4188 33.552 18.2648C33.7032 17.8173 34.1018 17.6436 34.5011 17.4617C34.95 17.2572 35.1744 17.155 35.3968 17.137C35.6493 17.1166 35.9022 17.171 36.118 17.2921C36.4041 17.4527 36.6036 17.7577 36.8079 18.0058C37.7513 19.1517 38.2229 19.7246 38.3955 20.3564C38.5348 20.8662 38.5348 21.3994 38.3955 21.9093C38.1438 22.8307 37.3485 23.6032 36.7598 24.3182C36.4587 24.684 36.3081 24.8668 36.118 24.9735C35.9022 25.0946 35.6493 25.149 35.3968 25.1286C35.1744 25.1106 34.95 25.0084 34.5011 24.8039C34.1018 24.6221 33.7032 24.4484 33.552 24.0008C33.5 23.8468 33.5 23.674 33.5 23.3284V18.9373Z" stroke="#00B795" stroke-width="1.5"/>
<path d="M23.5 18.9372C23.5 18.5019 23.4878 18.1108 23.1359 17.8048C23.0079 17.6935 22.8383 17.6162 22.4989 17.4616C22.05 17.2572 21.8256 17.1549 21.6032 17.1369C20.9359 17.083 20.5769 17.5384 20.1921 18.0057C19.2487 19.1516 18.7771 19.7245 18.6045 20.3563C18.4652 20.8661 18.4652 21.3993 18.6045 21.9092C18.8562 22.8307 19.6515 23.6031 20.2402 24.3181C20.6113 24.7688 20.9658 25.1801 21.6032 25.1285C21.8256 25.1105 22.05 25.0083 22.4989 24.8039C22.8383 24.6493 23.0079 24.572 23.1359 24.4607C23.4878 24.1547 23.5 23.7635 23.5 23.3283V18.9372Z" stroke="#00B795" stroke-width="1.5"/>
<path d="M21.5 17.1328C21.5 13.8191 24.634 11.1328 28.5 11.1328C32.366 11.1328 35.5 13.8191 35.5 17.1328" stroke="#00B795" stroke-width="1.5" stroke-linecap="square" stroke-linejoin="round"/>
<path d="M35.5 25.1328V25.9328C35.5 27.7001 33.7091 29.1328 31.5 29.1328H29.5" stroke="#00B795" stroke-width="1.5" stroke-linecap="round" stroke-linejoin="round"/>
<path d="M51.108 25.1328V16.3168H48.836V15.1168C49.2627 15.0848 49.6467 15.0368 49.988 14.9728C50.3293 14.8981 50.6333 14.7755 50.9 14.6048C51.1667 14.4235 51.4013 14.1621 51.604 13.8208H52.804V25.1328H51.108ZM59.7651 25.2608C58.9545 25.2608 58.2665 25.1168 57.7011 24.8288C57.1358 24.5301 56.6771 24.1195 56.3251 23.5968C55.9731 23.0635 55.7118 22.4501 55.5411 21.7568C55.3811 21.0528 55.3011 20.2955 55.3011 19.4848C55.3011 18.6741 55.3811 17.9221 55.5411 17.2288C55.7011 16.5248 55.9571 15.9115 56.3091 15.3888C56.6718 14.8555 57.1358 14.4395 57.7011 14.1408C58.2771 13.8421 58.9651 13.6928 59.7651 13.6928C60.6185 13.6928 61.3278 13.8528 61.8931 14.1728C62.4691 14.4928 62.9278 14.9301 63.2691 15.4848C63.6211 16.0288 63.8665 16.6475 64.0051 17.3408C64.1545 18.0341 64.2291 18.7488 64.2291 19.4848C64.2291 20.2208 64.1545 20.9355 64.0051 21.6288C63.8558 22.3221 63.6105 22.9408 63.2691 23.4848C62.9278 24.0288 62.4691 24.4608 61.8931 24.7808C61.3171 25.1008 60.6078 25.2608 59.7651 25.2608ZM59.7651 23.7088C60.3518 23.7088 60.8265 23.5808 61.1891 23.3248C61.5518 23.0581 61.8291 22.7115 62.0211 22.2848C62.2131 21.8581 62.3411 21.3995 62.4051 20.9088C62.4798 20.4181 62.5171 19.9435 62.5171 19.4848C62.5171 19.0368 62.4798 18.5675 62.4051 18.0768C62.3411 17.5755 62.2131 17.1115 62.0211 16.6848C61.8291 16.2581 61.5518 15.9115 61.1891 15.6448C60.8371 15.3781 60.3678 15.2448 59.7811 15.2448C59.1838 15.2448 58.6985 15.3781 58.3251 15.6448C57.9625 15.9115 57.6851 16.2581 57.4931 16.6848C57.3011 17.1115 57.1731 17.5701 57.1091 18.0608C57.0451 18.5515 57.0131 19.0261 57.0131 19.4848C57.0131 19.9435 57.0451 20.4181 57.1091 20.9088C57.1731 21.3995 57.2958 21.8581 57.4771 22.2848C57.6691 22.7115 57.9465 23.0581 58.3091 23.3248C58.6825 23.5808 59.1678 23.7088 59.7651 23.7088ZM66.4865 25.1328L70.9825 15.3728H65.1905V13.8208H72.8705V15.1488L68.3585 25.1328H66.4865ZM73.6039 25.1328V23.7248L76.7879 21.0048C77.0545 20.7808 77.3479 20.5301 77.6679 20.2528C77.9985 19.9755 78.3132 19.6768 78.6119 19.3568C78.9212 19.0368 79.1719 18.6955 79.3639 18.3328C79.5665 17.9701 79.6679 17.5915 79.6679 17.1968C79.6679 16.5888 79.4812 16.1141 79.1079 15.7728C78.7452 15.4315 78.2492 15.2608 77.6199 15.2608C77.0865 15.2608 76.6332 15.3728 76.2599 15.5968C75.8972 15.8208 75.6572 16.1355 75.5399 16.5408H73.8119C73.9079 15.8901 74.1479 15.3568 74.5319 14.9408C74.9159 14.5248 75.3852 14.2155 75.9399 14.0128C76.4945 13.7995 77.0759 13.6928 77.6839 13.6928C78.3879 13.6928 79.0172 13.8208 79.5719 14.0768C80.1265 14.3328 80.5639 14.7115 80.8839 15.2128C81.2039 15.7035 81.3639 16.3061 81.3639 17.0208C81.3639 17.6928 81.2359 18.2901 80.9799 18.8128C80.7239 19.3355 80.3825 19.8101 79.9559 20.2368C79.5399 20.6635 79.0865 21.0795 78.5959 21.4848L76.0839 23.5808H81.4439V25.1328H73.6039ZM88.5146 25.1328V22.9408H82.4986V21.6608L87.9386 13.8208H90.1946V21.4048H91.5066V22.9408H90.1946V25.1328H88.5146ZM84.4986 21.4048H88.5146V15.5008L84.4986 21.4048ZM93.1513 20.4128V18.9088H98.2713V20.4128H93.1513ZM100.815 25.1328L105.311 15.3728H99.5186V13.8208H107.199V15.1488L102.687 25.1328H100.815ZM112.476 25.2608C111.953 25.2608 111.447 25.2021 110.956 25.0848C110.465 24.9675 110.023 24.7808 109.628 24.5248C109.244 24.2581 108.935 23.9115 108.7 23.4848C108.465 23.0581 108.348 22.5355 108.348 21.9168C108.348 21.4901 108.417 21.1061 108.556 20.7648C108.695 20.4128 108.897 20.1088 109.164 19.8528C109.441 19.5968 109.761 19.3941 110.124 19.2448C109.751 19.0421 109.457 18.8021 109.244 18.5248C109.031 18.2368 108.887 17.9328 108.812 17.6128C108.737 17.2928 108.7 16.9888 108.7 16.7008C108.7 16.1568 108.807 15.6981 109.02 15.3248C109.233 14.9408 109.521 14.6315 109.884 14.3968C110.247 14.1515 110.652 13.9755 111.1 13.8688C111.548 13.7515 112.012 13.6928 112.492 13.6928C112.961 13.6928 113.42 13.7515 113.868 13.8688C114.316 13.9755 114.721 14.1515 115.084 14.3968C115.447 14.6421 115.735 14.9568 115.948 15.3408C116.161 15.7248 116.268 16.1888 116.268 16.7328C116.268 17.0101 116.225 17.3035 116.14 17.6128C116.065 17.9221 115.921 18.2155 115.708 18.4928C115.495 18.7701 115.196 19.0048 114.812 19.1968C115.196 19.3461 115.521 19.5541 115.788 19.8208C116.065 20.0875 116.273 20.3968 116.412 20.7488C116.551 21.1008 116.62 21.4955 116.62 21.9328C116.62 22.5408 116.503 23.0581 116.268 23.4848C116.033 23.9115 115.713 24.2581 115.308 24.5248C114.913 24.7808 114.471 24.9675 113.98 25.0848C113.5 25.2021 112.999 25.2608 112.476 25.2608ZM112.476 23.7248C112.732 23.7248 112.999 23.6981 113.276 23.6448C113.553 23.5915 113.815 23.5008 114.06 23.3728C114.305 23.2341 114.503 23.0475 114.652 22.8128C114.812 22.5675 114.892 22.2635 114.892 21.9008C114.892 21.4528 114.78 21.1008 114.556 20.8448C114.332 20.5781 114.033 20.3861 113.66 20.2688C113.297 20.1408 112.903 20.0768 112.476 20.0768C112.06 20.0768 111.665 20.1408 111.292 20.2688C110.929 20.3861 110.631 20.5781 110.396 20.8448C110.172 21.1008 110.06 21.4528 110.06 21.9008C110.06 22.2635 110.135 22.5675 110.284 22.8128C110.444 23.0475 110.647 23.2341 110.892 23.3728C111.148 23.5008 111.415 23.5915 111.692 23.6448C111.969 23.6981 112.231 23.7248 112.476 23.7248ZM112.492 18.6688C112.876 18.6688 113.217 18.6048 113.516 18.4768C113.825 18.3488 114.076 18.1621 114.268 17.9168C114.46 17.6608 114.556 17.3515 114.556 16.9888C114.567 16.5621 114.476 16.2208 114.284 15.9648C114.092 15.6981 113.836 15.5061 113.516 15.3888C113.207 15.2608 112.86 15.1968 112.476 15.1968C112.081 15.1968 111.724 15.2608 111.404 15.3888C111.095 15.5061 110.849 15.6928 110.668 15.9488C110.497 16.2048 110.412 16.5301 110.412 16.9248C110.412 17.3195 110.508 17.6501 110.7 17.9168C110.892 18.1728 111.143 18.3648 111.452 18.4928C111.772 18.6101 112.119 18.6688 112.492 18.6688ZM120.077 25.1328V16.3168H117.805V15.1168C118.231 15.0848 118.615 15.0368 118.957 14.9728C119.298 14.8981 119.602 14.7755 119.869 14.6048C120.135 14.4235 120.37 14.1621 120.573 13.8208H121.773V25.1328H120.077ZM130.046 25.1328V22.9408H124.03V21.6608L129.47 13.8208H131.726V21.4048H133.038V22.9408H131.726V25.1328H130.046ZM126.03 21.4048H130.046V15.5008L126.03 21.4048ZM133.739 25.1328L137.451 19.4848L133.851 13.8208H135.914L138.523 18.1408L141.131 13.8208H143.147L139.563 19.4368L143.275 25.1328H141.227L138.491 20.7968L135.707 25.1328H133.739ZM143.629 25.1328L147.341 19.4848L143.741 13.8208H145.805L148.413 18.1408L151.021 13.8208H153.037L149.453 19.4368L153.165 25.1328H151.117L148.381 20.7968L145.597 25.1328H143.629Z" fill="white"/>
</svg>
